<?xml version="1.0" encoding="utf-8"?>
<!-- Generated by IcoMoon.io -->
<!DOCTYPE svg PUBLIC "-//W3C//DTD SVG 1.1//EN" "http://www.w3.org/Graphics/SVG/1.1/DTD/svg11.dtd">
<svg version="1.1" xmlns="http://www.w3.org/2000/svg" xmlns:xlink="http://www.w3.org/1999/xlink" width="496" height="64" viewBox="0 0 496 64">
<svg id="icon-accessibility-icon" width="32" height="32" viewBox="0 0 32 32" x="0" y="0">
<path d="M14.316 31.856c-8.547-0.886-14.967-8.729-14.131-17.262 1.055-10.758 11.875-17.373 21.881-13.379 7.304 2.917 11.401 10.986 9.476 18.661-1.648 6.568-7.174 11.317-13.958 11.995-1.447 0.145-1.75 0.144-3.268-0.014zM18.135 29.44c2.637-0.428 4.902-1.481 6.848-3.184 6.249-5.468 6.249-15.044 0-20.513-5.099-4.462-12.737-4.462-17.836 0-6.249 5.468-6.249 15.044 0 20.513 3.012 2.635 7.087 3.816 10.988 3.184zM13.755 26.793c-2.818-0.604-5.351-2.347-6.951-4.784-2.326-3.543-2.326-8.473 0-12.016 2.075-3.161 5.472-4.992 9.262-4.992 3.022 0 5.688 1.096 7.796 3.204s3.204 4.774 3.204 7.796c0 5.289-3.615 9.738-8.776 10.801-1.198 0.247-3.36 0.243-4.535-0.009zM14.051 24.302c0.366-0.466 0.679-1.374 1.204-3.496 0.254-1.028 0.531-1.941 0.614-2.030 0.302-0.321 0.545-0.020 0.818 1.014 1.22 4.63 1.406 5.012 2.326 4.781 0.406-0.102 0.391-0.332-0.128-2-0.793-2.546-1.286-5.217-1.345-7.286-0.052-1.84-0.143-1.778 2.922-1.983 1.329-0.089 2.426-0.165 2.439-0.17 0.175-0.064 0.415-0.468 0.415-0.7 0-0.565-0.294-0.597-3.293-0.364-2.958 0.231-6.148 0.204-9.239-0.078-1.258-0.115-1.634-0.113-1.781 0.009-0.268 0.223-0.233 0.785 0.060 0.968 0.256 0.16 1.664 0.334 3.816 0.472 0.782 0.050 1.361 0.151 1.548 0.271 0.293 0.188 0.297 0.212 0.231 1.708-0.084 1.896-0.685 4.875-1.547 7.662-0.251 0.811-0.287 1.073-0.175 1.281 0.204 0.381 0.795 0.349 1.117-0.061zM17.193 11.108c0.996-0.557 1.377-1.837 0.85-2.857-0.851-1.648-3.104-1.648-3.955 0-0.506 0.981-0.156 2.27 0.764 2.814 0.821 0.485 1.527 0.498 2.34 0.043z"></path>
</svg>
<svg id="icon-bootstrap-icon" width="32" height="32" viewBox="0 0 32 32" x="48" y="0">
<path d="M8.032 16.414v-10.007l5.156 0.002c2.836 0.001 5.55 0.059 6.031 0.127 2.136 0.304 3.35 1.028 4.060 2.42 0.396 0.776 0.439 0.966 0.48 2.12 0.038 1.058 0.002 1.383-0.217 1.965-0.314 0.835-0.931 1.588-1.698 2.072-0.309 0.195-0.562 0.383-0.561 0.418s0.31 0.196 0.687 0.359c2.126 0.92 3.228 3.412 2.67 6.041-0.425 2.003-1.992 3.487-4.422 4.185-0.649 0.187-1.516 0.221-6.469 0.26l-5.719 0.044v-10.007zM18.844 22.739c1.116-0.493 1.645-1.428 1.53-2.703-0.095-1.051-0.5-1.724-1.276-2.123-0.608-0.313-0.683-0.32-3.656-0.357l-3.035-0.037v5.535l2.969-0.047c2.496-0.040 3.048-0.082 3.469-0.268zM17.983 14.347c1.064-0.316 1.549-1.013 1.549-2.226 0-1.013-0.31-1.525-1.188-1.964-0.597-0.299-0.742-0.314-3.281-0.356l-2.656-0.044v4.775h2.477c1.821 0 2.642-0.049 3.099-0.185z"></path>
</svg>
<svg id="icon-css-icon" width="32" height="32" viewBox="0 0 32 32" x="96" y="0">
<path d="M10.937 30.571c-3.948-1.086-4.605-1.299-4.651-1.514-0.029-0.138-0.479-5.116-0.999-11.063-0.52-5.946-0.978-11.023-1.016-11.281l-0.070-0.469h22.668l-0.071 0.469c-0.039 0.258-0.498 5.334-1.019 11.281s-0.97 10.925-0.998 11.062c-0.043 0.213-0.568 0.392-3.586 1.22-1.945 0.533-4.014 1.102-4.598 1.264l-1.063 0.294-4.598-1.264zM18.347 26.229c1.547-0.424 2.865-0.819 2.93-0.876 0.177-0.158 1.42-14.375 1.262-14.435-0.071-0.027-3.279-0.035-7.13-0.017l-7 0.032 0.034 0.75c0.019 0.412 0.066 1.017 0.105 1.344l0.071 0.594h10.921l-0.099 1.335c-0.054 0.734-0.131 1.367-0.17 1.406s-2.359 0.089-5.154 0.11c-2.796 0.022-5.123 0.078-5.171 0.125s-0.025 0.662 0.052 1.367l0.139 1.281h9.987l-0.071 0.406c-0.039 0.223-0.137 1.093-0.219 1.933l-0.148 1.527-0.389 0.122c-0.214 0.067-0.923 0.265-1.576 0.439l-1.188 0.316-3.125-0.831-0.218-2.414h-2.844v0.4c0 0.816 0.288 3.919 0.38 4.094 0.074 0.14 4.991 1.65 5.682 1.744 0.069 0.009 1.391-0.33 2.938-0.755zM9.347 2.432v-2.313h2.75v0.864l-1.688 0.074-0.071 2.812h1.758v0.875h-2.75v-2.313zM13.097 4.244v-0.5h2.384l-1.128-1.344c-0.979-1.166-1.128-1.406-1.13-1.813l-0.001-0.469h3.5v0.875h-1c-0.55 0-1 0.032-1 0.072s0.506 0.691 1.125 1.448c0.928 1.135 1.125 1.451 1.125 1.803v0.427h-3.875v-0.5zM17.722 4.249v-0.495l2.409-0.072-1.079-1.293c-0.95-1.139-1.078-1.351-1.078-1.781v-0.489h3.5v0.875h-1c-0.55 0-1 0.046-1 0.101s0.478 0.682 1.063 1.392c0.928 1.127 1.063 1.352 1.063 1.774v0.483h-3.875v-0.495z"></path>
</svg>
<svg id="icon-github-icon" width="32" height="32" viewBox="0 0 32 32" x="144" y="0">
<path d="M20.834 31.558c-0.137-0.028-0.306-0.104-0.375-0.169-0.073-0.070-0.152-1.399-0.189-3.207-0.058-2.78-0.090-3.144-0.323-3.65-0.143-0.309-0.353-0.64-0.467-0.734-0.337-0.278-0.248-0.357 0.506-0.451 1.762-0.22 3.503-1.007 4.529-2.047 1.314-1.332 1.888-2.941 1.924-5.392 0.025-1.741-0.257-2.802-1.045-3.927-0.512-0.731-0.513-0.734-0.364-1.352 0.176-0.734 0.097-2.321-0.151-3.033l-0.174-0.5-0.747 0.013c-0.798 0.014-1.926 0.447-3.064 1.177l-0.574 0.368-0.93-0.212c-1.293-0.294-4.933-0.296-6.218-0.003l-0.913 0.208-0.6-0.369c-1.226-0.754-2.281-1.156-3.071-1.17l-0.747-0.013-0.17 0.5c-0.249 0.735-0.331 2.3-0.158 3.021 0.147 0.613 0.144 0.625-0.347 1.361-0.836 1.254-1.071 2.119-1.053 3.868 0.036 3.393 1.218 5.534 3.688 6.681 0.999 0.464 2.494 0.882 3.153 0.882 0.394 0 0.397 0.059 0.020 0.507-0.165 0.196-0.374 0.648-0.466 1.005-0.143 0.558-0.228 0.676-0.607 0.84-0.244 0.105-0.831 0.195-1.316 0.201-1.274 0.015-1.875-0.315-2.787-1.529-0.921-1.226-1.547-1.671-2.456-1.746-0.583-0.048-0.703-0.022-0.777 0.17-0.065 0.169 0.023 0.31 0.338 0.547 0.851 0.639 1.357 1.264 1.877 2.317 0.359 0.728 0.708 1.232 1.081 1.561 0.898 0.79 2.296 1.134 3.694 0.908l0.719-0.116v1.489c0 0.819-0.058 1.598-0.129 1.731-0.384 0.718-3.088-0.334-5.47-2.129-5.178-3.903-7.458-10.452-5.849-16.795 1.286-5.071 5.336-9.431 10.294-11.082 1.902-0.634 3.025-0.81 5.153-0.81 4.464 0 8.112 1.51 11.266 4.665s4.664 6.802 4.664 11.266c0 2.136-0.176 3.247-0.821 5.188-1.311 3.941-4.541 7.526-8.379 9.3-1.19 0.55-1.803 0.738-2.168 0.664z"></path>
</svg>
<svg id="icon-heart-icon" width="32" height="32" viewBox="0 0 32 32" x="192" y="0">
<path d="M14.699 26.764c-7.013-6.020-11.266-11.28-11.8-14.594-0.225-1.399 0.178-3.232 1.016-4.623 0.575-0.954 1.992-2.259 2.977-2.742 2.887-1.417 6.094-0.929 8.333 1.268l0.91 0.893 0.91-0.893c1.428-1.401 3.025-2.055 5.002-2.051 1.927 0.004 3.624 0.685 5.025 2.018 1.371 1.303 2.079 2.686 2.308 4.508 0.222 1.767-0.284 3.307-1.87 5.693-1.602 2.41-3.938 5.046-6.953 7.845-2.064 1.916-4.262 3.81-4.422 3.81-0.066 0-0.713-0.509-1.437-1.13zM17.619 23.238c4.073-3.587 7.419-7.453 8.629-9.969 0.416-0.865 0.45-1.025 0.448-2.063-0.002-1.014-0.041-1.199-0.393-1.877-1.092-2.102-3.431-3.123-5.626-2.457-1.358 0.412-2.911 1.622-4.201 3.271l-0.342 0.438-0.457-0.563c-1.272-1.564-2.939-2.812-4.283-3.206-2.015-0.591-4.398 0.517-5.415 2.518-0.523 1.028-0.609 2.314-0.225 3.333 0.567 1.502 2.665 4.302 5.286 7.051 1.111 1.166 4.951 4.796 5.081 4.803 0.025 0.001 0.7-0.574 1.5-1.278z"></path>
</svg>
<svg id="icon-html-icon" width="32" height="32" viewBox="0 0 32 32" x="240" y="0">
<path d="M11.502 28.578c-2.053-0.575-3.762-1.075-3.798-1.111-0.071-0.070-1.771-18.833-1.777-19.603l-0.003-0.469h19.5l-0.003 0.469c-0.005 0.712-1.71 19.537-1.775 19.602-0.136 0.136-7.696 2.175-8.034 2.166-0.206-0.005-2.055-0.48-4.109-1.054zM18.299 24.751c2.023-0.556 2.39-0.694 2.435-0.911 0.029-0.141 0.169-1.663 0.31-3.381s0.287-3.308 0.324-3.531l0.067-0.406h-8.991l-0.078-0.844c-0.043-0.464-0.106-1.027-0.141-1.25l-0.063-0.406h9.511l0.001-0.406c0-0.223 0.037-0.786 0.081-1.25l0.080-0.844h-12.286l0.001 0.344c0.001 0.189 0.141 1.834 0.311 3.656s0.31 3.355 0.311 3.406c0.001 0.052 1.918 0.094 4.26 0.094h4.259l-0.088 1.031c-0.048 0.567-0.123 1.279-0.165 1.583l-0.077 0.552-2.688 0.72-2.687-0.72-0.087-0.489c-0.048-0.269-0.090-0.728-0.094-1.020l-0.007-0.531h-2.5l0.008 0.344c0.016 0.659 0.313 3.519 0.371 3.575 0.118 0.113 4.938 1.425 5.086 1.384 0.084-0.023 1.225-0.337 2.535-0.697zM7.673 3.895v-1.875h1.25v1.25h1.125v-1.25h1.25v3.75h-1.25v-1.25h-1.125v1.25h-1.25v-1.875zM12.923 4.52v-1.25h-1.139l0.076-1.188 3.438-0.070v1.257h-1.125v2.5h-1.25v-1.25zM15.825 3.926l0.035-1.844 1.254-0.074 0.368 0.631c0.203 0.347 0.404 0.631 0.448 0.631s0.255-0.281 0.469-0.625c0.383-0.616 0.398-0.625 1.019-0.625h0.63v3.75h-1.25l-0.006-1.813-0.858 1.346-0.823-1.327-0.073 1.793h-1.246l0.035-1.844zM20.673 3.895v-1.875h1.25v2.5h1.75v1.25h-3v-1.875z"></path>
</svg>
<svg id="icon-javascript-icon" width="32" height="32" viewBox="0 0 32 32" x="288" y="0">
<path d="M3.253 26.87c-1.067-0.067-2.953-0.434-3.004-0.585-0.086-0.254 0.515-4.144 0.636-4.118 1.033 0.224 1.972 0.31 2.899 0.265 0.989-0.047 1.213-0.102 1.738-0.427 0.696-0.43 1.215-1.313 1.419-2.412 0.075-0.402 0.125-3.836 0.125-8.531v-7.858h5.263l-0.042 8.594c-0.041 8.451-0.047 8.61-0.322 9.594-0.758 2.709-2.149 4.277-4.439 5.005-1.113 0.353-2.948 0.557-4.272 0.473zM21.053 26.815c-0.66-0.052-1.701-0.214-2.313-0.359-1.284-0.306-2.871-0.904-2.845-1.073 0.039-0.259 0.96-4.119 0.992-4.159 0.019-0.024 0.475 0.131 1.013 0.344 1.382 0.547 2.758 0.871 4.1 0.965 2.773 0.195 4.44-0.753 4.44-2.525 0-1.294-0.94-2.125-3.528-3.119-4.43-1.701-6.32-3.47-6.72-6.291-0.483-3.407 1.747-6.361 5.604-7.423 0.799-0.22 1.323-0.265 3.205-0.272 1.421-0.006 2.526 0.051 3 0.155 1.193 0.26 2.7 0.784 2.768 0.963 0.086 0.223-1.019 4.129-1.158 4.094-0.061-0.015-0.495-0.171-0.965-0.346-1.807-0.671-4.176-0.85-5.518-0.415-0.274 0.089-0.731 0.387-1.017 0.663-0.669 0.646-0.806 1.29-0.447 2.1 0.382 0.863 1.239 1.405 3.905 2.465 4.396 1.749 6.043 3.522 6.21 6.686 0.266 5.022-4.069 8.072-10.728 7.548z"></path>
</svg>
<svg id="icon-JQuery-icon" width="32" height="32" viewBox="0 0 32 32" x="336" y="0">
<path d="M6.664 7.055c0.083-0.218 0.152-0.442 0.152-0.5s0.164-0.105 0.365-0.105c0.345 0 0.6-0.678 1.009-2.688 0.132-0.649 0.288-0.813 0.775-0.813 0.504 0 0.588 0.098 0.482 0.563-0.070 0.309-0.245 1.111-0.388 1.782-0.394 1.849-0.63 2.156-1.654 2.156-0.712 0-0.862-0.080-0.741-0.395zM1.286 5.479c-0.809-0.809-0.971-1.14-0.971-1.985 0-0.558 0.112-1.084 0.25-1.169 0.142-0.088 0.25 0.127 0.25 0.498 0 0.964 0.659 2.067 1.492 2.498 0.77 0.398 2.485 0.511 2.904 0.192 0.135-0.103-0.017 0.066-0.339 0.375-0.411 0.395-0.887 0.563-1.601 0.563-0.846 0-1.177-0.162-1.986-0.971zM11.315 5.773c-1.321-0.486-1.644-2.071-0.77-3.783 0.532-1.042 1.375-1.539 2.61-1.539 0.89 0 1.893 0.749 1.938 1.447 0.053 0.815-0.080 1.68-0.329 2.147-0.177 0.332-0.162 0.524 0.052 0.656 0.18 0.111 0.234 0.402 0.134 0.718-0.149 0.469-0.349 0.529-1.714 0.511-0.85-0.011-1.714-0.082-1.921-0.158zM13.572 4.059c0.134-0.353 0.244-1.020 0.244-1.483 0-1.685-2.062-1.257-2.391 0.496-0.239 1.273-0.018 1.629 1.014 1.629 0.724 0 0.934-0.119 1.133-0.641zM16.318 5.634c-0.778-0.402-0.862-0.827-0.503-2.557 0.247-1.192 0.364-1.377 0.867-1.377 0.543 0 0.567 0.061 0.363 0.938-0.382 1.645-0.303 2.062 0.391 2.062 0.472 0 0.657-0.164 0.776-0.688 0.474-2.091 0.519-2.189 1.053-2.267 0.597-0.087 0.598-0.158-0.059 2.83-0.27 1.228-0.293 1.251-1.27 1.315-0.547 0.036-1.276-0.080-1.618-0.256zM20.371 5.561c-1.148-0.804-0.416-3.371 1.106-3.873 1.661-0.548 2.735 0.221 2.43 1.741-0.149 0.746-0.197 0.77-1.498 0.77-0.739 0-1.344 0.11-1.344 0.245 0 0.329 1.109 0.59 1.88 0.443 0.643-0.123 0.726-0.004 0.469 0.667-0.203 0.53-2.288 0.534-3.043 0.006zM22.815 2.965c0-0.379-0.465-0.559-1.002-0.389-0.752 0.239-0.596 0.624 0.252 0.624 0.413 0 0.75-0.106 0.75-0.235zM24.065 5.786c0-0.11 0.188-1.074 0.418-2.142l0.418-1.943h1.707c1.541 0 1.707 0.049 1.707 0.5 0 0.432-0.167 0.5-1.233 0.5h-1.233l-0.346 1.563c-0.284 1.284-0.443 1.577-0.892 1.642-0.3 0.044-0.546-0.010-0.546-0.119zM27.642 5.138c0.023-0.447-0.044-1.122-0.148-1.5-0.168-0.614-0.123-0.688 0.42-0.688 0.335 0 0.655 0.139 0.712 0.31s0.527-0.28 1.044-1c0.687-0.956 1.103-1.31 1.543-1.31 0.331 0 0.602 0.067 0.602 0.148s-0.623 0.95-1.384 1.929c-0.761 0.98-1.448 2.038-1.527 2.352-0.098 0.389-0.328 0.571-0.723 0.571-0.496 0-0.574-0.117-0.539-0.813zM2.754 4.204c-0.735-0.578-1.058-1.59-0.702-2.201 0.211-0.362 0.251-0.326 0.257 0.237 0.011 0.995 1.349 2.033 2.453 1.904 0.756-0.088 0.803-0.062 0.407 0.228-0.649 0.475-1.69 0.402-2.416-0.168zM3.873 2.811c-0.306-0.214-0.549-0.636-0.54-0.938l0.016-0.548 0.228 0.568c0.247 0.614 1.136 1.062 1.74 0.875 0.333-0.103 0.333-0.086 0 0.154-0.51 0.367-0.792 0.345-1.444-0.112zM8.61 2.158c0.055-0.388 0.277-0.61 0.665-0.665 0.485-0.069 0.569 0.015 0.5 0.5-0.055 0.388-0.277 0.61-0.665 0.665-0.485 0.069-0.569-0.015-0.5-0.5z"></path>
</svg>
<svg id="icon-optimization-icon" width="32" height="32" viewBox="0 0 32 32" x="384" y="0">
<path d="M26.874 31.883c-0.728-0.221-1.212-0.641-4.149-3.593-2.002-2.012-3.156-3.266-3.281-3.568-0.294-0.706-0.251-1.818 0.098-2.507l0.292-0.576-1.787-1.775-0.306 0.241c-2.585 2.033-6.654 2.693-9.991 1.62-2.276-0.731-4.507-2.401-5.858-4.383-2.386-3.502-2.487-8.236-0.256-12.004 0.699-1.18 2.523-3.004 3.704-3.703 3.256-1.928 7.204-2.141 10.524-0.568 3.891 1.844 6.386 5.776 6.386 10.066 0 2.342-0.85 4.961-2.144 6.606l-0.241 0.306 1.775 1.787 0.576-0.292c0.689-0.349 1.801-0.392 2.507-0.098 0.578 0.241 6.562 6.158 6.914 6.837 0.339 0.654 0.427 1.477 0.235 2.186-0.136 0.5-0.375 0.808-1.485 1.916-1.011 1.008-1.445 1.356-1.838 1.469-0.571 0.164-1.198 0.176-1.674 0.031zM28.653 28.659c0.466-0.462 0.847-0.925 0.847-1.030 0-0.291-5.639-5.879-5.933-5.879-0.328 0-1.817 1.482-1.817 1.808 0 0.296 5.579 5.942 5.871 5.942 0.102 0 0.566-0.378 1.032-0.84zM13.038 19.552c0.495-0.109 1.378-0.43 1.962-0.713 0.868-0.421 1.27-0.722 2.193-1.646 0.922-0.922 1.226-1.327 1.647-2.193 0.704-1.45 0.958-2.688 0.88-4.296-0.153-3.16-1.934-5.874-4.778-7.277-2.498-1.233-5.078-1.225-7.665 0.023-0.949 0.458-1.351 0.748-2.203 1.59-0.874 0.864-1.135 1.222-1.614 2.214-0.979 2.027-1.213 4.311-0.64 6.246 0.694 2.342 2.643 4.594 4.772 5.516 1.659 0.718 3.705 0.919 5.445 0.537z"></path>
</svg>
<svg id="icon-photoshop-icon" width="32" height="32" viewBox="0 0 32 32" x="432" y="0">
<path d="M0.756 15.935v-15.5h30.875v31h-30.875v-15.5zM30.381 15.935v-14.25h-28.375v28.5h28.375v-14.25zM5.411 15.538l0.032-8.522 0.375-0.1c0.206-0.055 1.266-0.157 2.354-0.225 4.7-0.297 7.057 0.561 8.191 2.98 0.301 0.643 0.329 0.835 0.327 2.265-0.003 2.023-0.248 2.711-1.362 3.822-1.318 1.314-2.841 1.85-5.292 1.86l-1.531 0.006-0 6.438h-3.127l0.032-8.522zM11.435 15.006c1.367-0.411 2.165-1.346 2.285-2.679 0.136-1.5-0.617-2.668-1.98-3.073-0.666-0.198-2.136-0.258-2.844-0.116l-0.391 0.078v2.913c0 2.669 0.018 2.918 0.219 2.97 0.499 0.13 2.158 0.074 2.711-0.093zM20.101 23.931c-0.604-0.102-1.741-0.444-2.115-0.636-0.19-0.098-0.183-0.196 0.090-1.188 0.164-0.595 0.316-1.1 0.338-1.122s0.397 0.103 0.832 0.279c2.26 0.913 4.26 0.56 4.259-0.752-0.001-0.652-0.38-1.104-1.261-1.5-2.068-0.932-2.618-1.235-3.084-1.701-0.662-0.662-0.942-1.274-1.003-2.188-0.163-2.473 2.177-4.277 5.197-4.008 0.918 0.082 2.461 0.489 2.579 0.68 0.072 0.116-0.403 1.899-0.546 2.053-0.051 0.055-0.389-0.017-0.75-0.16-1.907-0.752-3.506-0.289-3.506 1.014 0 0.615 0.275 0.895 1.356 1.382 2.195 0.988 2.638 1.244 3.136 1.81 1.136 1.29 1.166 3.352 0.068 4.635-1.021 1.193-3.354 1.778-5.59 1.402z"></path>
</svg>
<svg id="icon-sass-icon" width="32" height="32" viewBox="0 0 32 32" x="480" y="0">
<path d="M14.315 31.804c-0.172-0.030-0.734-0.116-1.25-0.192-2.108-0.308-5.002-1.535-6.812-2.888-2.649-1.98-4.663-4.809-5.768-8.099l-0.357-1.063v-7.375l0.462-1.334c0.884-2.552 2.021-4.393 3.851-6.237 1.985-2 4.414-3.423 7.177-4.204 0.996-0.282 1.442-0.329 3.604-0.38 1.545-0.037 2.771-0.006 3.278 0.082 4.876 0.849 9.178 4.007 11.441 8.399 1.239 2.405 1.759 4.577 1.761 7.361 0.003 4.359-1.583 8.212-4.631 11.25-2.335 2.327-5.151 3.834-8.306 4.444-0.993 0.192-3.835 0.342-4.448 0.235zM11.998 25.637c1.53-0.753 2.448-2.184 2.437-3.798-0.003-0.427-0.087-1.002-0.186-1.277s-0.181-0.507-0.182-0.516c-0.001-0.009 0.248-0.079 0.553-0.156 2.145-0.54 4.070 0.407 4.070 2.003 0 0.521-0.064 0.677-0.452 1.107-0.447 0.495-0.448 0.5-0.142 0.5 0.407 0 0.887-0.388 1.14-0.922 0.634-1.335-0.35-3-2.075-3.513-0.813-0.241-2.409-0.246-3.081-0.009l-0.515 0.182-0.784-0.776c-0.432-0.427-1.268-1.232-1.858-1.791-1.61-1.524-1.927-2.424-1.316-3.734 0.866-1.858 3.585-3.819 6.773-4.886 3.452-1.155 6.382-0.434 6.337 1.558-0.042 1.832-2.108 3.562-5.107 4.275-1.422 0.338-2.176 0.281-3.17-0.24-0.869-0.456-0.877-0.458-0.877-0.213 0 0.306 1.262 1.155 2.057 1.385 1.921 0.554 4.921-0.279 6.633-1.841 2.278-2.080 2.562-4.785 0.638-6.072-1.102-0.736-2.124-0.965-4.265-0.955-2.897 0.013-4.449 0.505-6.999 2.215-2.164 1.451-3.452 2.956-3.959 4.625-0.638 2.099 0.144 3.638 3.194 6.287l0.861 0.748-0.843 0.415c-1.003 0.494-2.273 1.693-2.668 2.519-0.459 0.96-0.311 2.217 0.327 2.785 0.771 0.686 2.176 0.725 3.458 0.094zM10.040 24.544c-0.547-0.154-0.42-1.106 0.277-2.078 0.429-0.599 1.81-1.715 2.121-1.715 0.18 0 0.403 1.101 0.321 1.584-0.23 1.36-1.647 2.511-2.72 2.209z"></path>
</svg>
<svg id="icon-treehouse-icon" width="32" height="32" viewBox="0 0 32 32" x="528" y="0">
<path d="M15.636 24.286c-0.488-0.196-7.599-4.238-7.86-4.468-0.164-0.144-0.402-0.488-0.529-0.763-0.21-0.455-0.231-0.88-0.231-4.688s0.021-4.233 0.231-4.688c0.127-0.275 0.365-0.617 0.529-0.76s1.982-1.206 4.041-2.362c4.346-2.441 4.38-2.451 5.645-1.809 1.617 0.821 1.684 1.407 0.415 3.624-0.817 1.427-1.198 1.832-2.241 2.382-0.513 0.27-0.715 0.297-2.277 0.298-1.938 0.001-2.162 0.095-2.303 0.96-0.060 0.372-0.012 0.512 0.301 0.861 0.46 0.515 1.075 0.565 1.656 0.136 0.224-0.166 0.649-0.312 1.033-0.355 0.359-0.041 0.92-0.208 1.247-0.371s0.594-0.273 0.594-0.245c0 0.083-2.128 1.637-2.813 2.053-0.344 0.209-0.774 0.417-0.955 0.462-0.558 0.139-1.039 0.749-1.039 1.317 0 0.707 0.578 1.278 1.293 1.278 0.584 0 0.767-0.124 1.279-0.868 0.462-0.671 1.452-1.443 1.736-1.353 0.153 0.049 0.271-0.069 0.437-0.437 0.373-0.826 0.352-0.486-0.059 0.955-0.566 1.988-0.718 2.346-1.119 2.643-0.489 0.361-0.699 1.014-0.511 1.585 0.572 1.732 3.101 1.188 2.818-0.606-0.143-0.905-0.118-1.246 0.156-2.14 0.311-1.017 0.843-1.688 1.34-1.688 0.267 0 0.372 0.103 0.576 0.564 0.137 0.31 0.214 0.621 0.172 0.69s-0.014 0.321 0.065 0.559c0.41 1.243 2.086 1.254 2.494 0.016 0.193-0.586 0.028-0.939-0.938-1.997-1.607-1.761-1.682-2.478-0.486-4.642 0.818-1.479 1.468-2.226 2.127-2.443 0.392-0.129 0.508-0.104 1.211 0.257 0.976 0.502 1.313 0.803 1.604 1.434 0.21 0.455 0.231 0.88 0.231 4.688s-0.021 4.233-0.231 4.687c-0.127 0.275-0.365 0.619-0.529 0.764s-1.976 1.209-4.027 2.363c-3.108 1.749-3.826 2.106-4.313 2.139-0.321 0.022-0.668 0.006-0.771-0.035z"></path>
</svg>
<svg id="icon-wordpress-icon" width="32" height="32" viewBox="0 0 32 32" x="576" y="0">
<path d="M14.424 29.964c-1.392-0.175-2.232-0.421-2.194-0.644 0.040-0.234 3.999-11.738 4.061-11.799 0.024-0.024 0.992 2.555 2.149 5.733s2.127 5.838 2.155 5.912c0.105 0.281-2.178 0.77-3.976 0.852-0.713 0.033-1.701 0.009-2.195-0.053zM9.315 28.298c-4.837-2.751-7.668-8.165-7.067-13.511 0.205-1.822 0.994-4.533 1.184-4.069 0.431 1.052 6.449 17.7 6.424 17.772-0.018 0.053-0.262-0.034-0.541-0.192zM23.137 28.004c0.001-0.054 0.991-2.939 2.2-6.411s2.334-6.761 2.499-7.309c0.365-1.21 0.6-3.019 0.509-3.912-0.037-0.362-0.021-0.63 0.035-0.595 0.14 0.087 0.734 1.577 1.021 2.566 0.367 1.26 0.495 2.281 0.493 3.932-0.005 3.699-1.429 7.098-4.083 9.742-1.008 1.004-2.68 2.246-2.674 1.987zM10.103 17.238c-1.359-4.033-2.47-7.403-2.469-7.489 0.001-0.105 0.218-0.157 0.658-0.158 0.835-0.002 1.27-0.216 1.32-0.649 0.064-0.552-0.212-0.604-2.517-0.472-1.14 0.065-2.189 0.076-2.33 0.024-0.237-0.088-0.193-0.174 0.561-1.117 3.322-4.152 8.993-6.003 14.248-4.65 1.815 0.467 3.955 1.552 5.25 2.661l0.5 0.428-0.532 0.143c-0.609 0.164-1.323 0.741-1.62 1.308-0.268 0.512-0.26 1.743 0.015 2.388 0.117 0.275 0.516 1.006 0.885 1.625 0.944 1.582 1.316 2.755 1.314 4.147-0.001 1.143-0.276 2.557-0.737 3.795-0.14 0.376-0.54 1.639-0.889 2.808s-0.665 2.209-0.703 2.313c-0.053 0.145-5.025-14.295-5.042-14.642-0.002-0.044 0.396-0.102 0.885-0.13 0.691-0.039 0.927-0.103 1.063-0.288 0.223-0.305 0.219-0.358-0.045-0.674-0.212-0.254-0.276-0.258-2.197-0.154-1.088 0.059-2.82 0.061-3.849 0.004s-1.953-0.073-2.054-0.034c-0.101 0.039-0.218 0.209-0.261 0.38-0.119 0.473 0.203 0.701 1.080 0.764 0.548 0.040 0.789 0.114 0.872 0.269 0.063 0.118 0.57 1.457 1.126 2.977l1.011 2.763-1.508 4.469c-0.829 2.458-1.521 4.482-1.536 4.496s-1.14-3.273-2.498-7.306z"></path>
</svg>
<svg id="icon-twitter" width="16" height="16" viewBox="0 0 16 16" x="0" y="48">
<path d="M16 3.538c-0.588 0.263-1.222 0.438-1.884 0.516 0.678-0.406 1.197-1.050 1.444-1.816-0.634 0.375-1.338 0.65-2.084 0.797-0.6-0.638-1.453-1.034-2.397-1.034-1.813 0-3.281 1.469-3.281 3.281 0 0.256 0.028 0.506 0.084 0.747-2.728-0.138-5.147-1.444-6.766-3.431-0.281 0.484-0.444 1.050-0.444 1.65 0 1.138 0.578 2.144 1.459 2.731-0.538-0.016-1.044-0.166-1.488-0.409 0 0.013 0 0.028 0 0.041 0 1.591 1.131 2.919 2.634 3.219-0.275 0.075-0.566 0.116-0.866 0.116-0.212 0-0.416-0.022-0.619-0.059 0.419 1.303 1.631 2.253 3.066 2.281-1.125 0.881-2.538 1.406-4.078 1.406-0.266 0-0.525-0.016-0.784-0.047 1.456 0.934 3.181 1.475 5.034 1.475 6.037 0 9.341-5.003 9.341-9.341 0-0.144-0.003-0.284-0.009-0.425 0.641-0.459 1.197-1.038 1.637-1.697z"></path>
</svg>
<svg id="icon-github" width="16" height="16" viewBox="0 0 16 16" x="32" y="48">
<path d="M8 0.198c-4.418 0-8 3.582-8 8 0 3.535 2.292 6.533 5.471 7.591 0.4 0.074 0.547-0.174 0.547-0.385 0-0.191-0.008-0.821-0.011-1.489-2.226 0.484-2.695-0.944-2.695-0.944-0.364-0.925-0.888-1.171-0.888-1.171-0.726-0.497 0.055-0.486 0.055-0.486 0.803 0.056 1.226 0.824 1.226 0.824 0.714 1.223 1.872 0.869 2.328 0.665 0.072-0.517 0.279-0.87 0.508-1.070-1.777-0.202-3.645-0.888-3.645-3.954 0-0.873 0.313-1.587 0.824-2.147-0.083-0.202-0.357-1.015 0.077-2.117 0 0 0.672-0.215 2.201 0.82 0.638-0.177 1.322-0.266 2.002-0.269 0.68 0.003 1.365 0.092 2.004 0.269 1.527-1.035 2.198-0.82 2.198-0.82 0.435 1.102 0.162 1.916 0.079 2.117 0.513 0.56 0.823 1.274 0.823 2.147 0 3.073-1.872 3.749-3.653 3.947 0.287 0.248 0.543 0.735 0.543 1.481 0 1.070-0.009 1.932-0.009 2.195 0 0.213 0.144 0.462 0.55 0.384 3.177-1.059 5.466-4.057 5.466-7.59 0-4.418-3.582-8-8-8z"></path>
</svg>
</svg>
